<?xml version="1.0" standalone="no"?>
<!DOCTYPE svg PUBLIC "-//W3C//DTD SVG 20010904//EN"
 "http://www.w3.org/TR/2001/REC-SVG-20010904/DTD/svg10.dtd">
<svg version="1.0" xmlns="http://www.w3.org/2000/svg"
 width="1024.000000pt" height="1024.000000pt" viewBox="0 0 1024.000000 1024.000000"
 preserveAspectRatio="xMidYMid meet">
<metadata>
Created by potrace 1.14, written by Peter Selinger 2001-2017
</metadata>
<g transform="translate(0.000000,1024.000000) scale(0.100000,-0.100000)"
fill="#000000" stroke="none">
<path d="M4291 9469 c-197 -38 -424 -171 -556 -325 -163 -190 -229 -353 -228
-559 1 -125 23 -225 75 -337 17 -38 29 -71 26 -73 -3 -3 -51 -13 -107 -21
-294 -44 -601 -221 -804 -463 -128 -152 -183 -252 -276 -499 -58 -154 -76
-182 -139 -219 -40 -24 -58 -28 -122 -28 -64 0 -83 4 -128 29 -59 33 -101 89
-128 168 -25 75 -16 207 19 274 29 58 116 141 156 150 55 11 72 23 69 46 -5
35 -48 45 -111 25 -179 -57 -321 -307 -320 -568 0 -300 163 -541 428 -634 l64
-22 -23 -34 c-13 -19 -26 -43 -29 -54 -6 -18 -14 -20 -85 -17 -363 17 -697
-238 -786 -599 -38 -153 -13 -352 61 -492 55 -103 184 -232 283 -281 l74 -37
-3 -77 c-7 -195 97 -404 249 -502 63 -41 161 -77 232 -86 44 -6 59 -13 91 -46
63 -66 82 -112 82 -203 0 -155 -83 -265 -200 -265 -39 0 -51 5 -90 41 -48 44
-78 48 -83 11 -5 -37 40 -94 99 -127 51 -28 60 -30 159 -29 116 1 165 15 270
79 59 36 146 115 172 155 24 39 28 21 7 -35 -10 -28 -41 -76 -69 -107 -49 -55
-60 -81 -40 -93 32 -20 133 107 164 205 l24 74 12 -40 c20 -68 10 -190 -23
-255 -57 -117 -154 -192 -263 -205 -70 -9 -128 10 -179 57 -71 66 -109 35 -64
-53 124 -246 330 -369 593 -356 103 6 205 36 246 73 16 14 21 14 51 -3 19 -11
50 -23 71 -26 42 -8 48 -19 48 -89 0 -188 -261 -343 -433 -258 -71 35 -90 69
-83 154 7 76 -5 92 -48 64 -63 -42 -74 -192 -21 -302 36 -75 140 -179 222
-223 126 -66 342 -98 498 -73 170 28 355 112 502 228 47 38 91 72 98 77 9 7
31 -7 76 -48 80 -73 237 -193 309 -237 l54 -33 -29 -7 c-17 -4 -84 -13 -150
-19 -270 -26 -552 -92 -686 -160 -50 -26 -116 -85 -133 -119 -33 -66 -27 -164
20 -314 111 -352 406 -698 733 -861 115 -57 340 -126 414 -126 19 0 30 -7 36
-22 34 -87 174 -122 486 -122 176 0 226 4 308 22 110 23 140 39 168 86 17 30
25 34 77 39 146 16 378 108 543 216 294 194 539 565 593 900 21 130 10 176
-59 243 -109 106 -458 201 -820 223 -55 4 -106 9 -114 11 -8 3 22 29 73 64 47
32 143 105 213 161 87 71 130 99 138 93 7 -5 52 -39 100 -75 109 -84 253 -159
370 -195 83 -26 104 -28 260 -28 188 -1 220 6 346 71 133 68 243 178 313 313
53 100 49 198 -7 219 -34 13 -49 -5 -42 -53 21 -147 -218 -220 -407 -125 -107
54 -175 143 -185 244 l-5 52 38 6 c22 4 56 16 77 27 l38 20 37 -25 c126 -86
352 -86 527 0 122 60 231 175 287 302 37 84 -2 132 -55 67 -40 -48 -98 -74
-167 -73 -179 2 -310 166 -310 387 0 111 14 136 30 56 7 -32 23 -81 37 -107
29 -58 105 -137 132 -137 34 0 30 26 -9 65 -48 47 -87 125 -102 201 -11 59 -5
134 10 134 4 0 19 -24 34 -52 58 -119 180 -248 280 -296 92 -45 208 -48 286
-8 38 20 88 72 103 107 10 25 9 32 -6 49 -25 28 -36 25 -63 -14 -29 -43 -77
-66 -134 -66 -80 0 -145 62 -179 171 -33 104 -23 220 24 289 20 30 31 36 106
52 247 53 430 226 491 464 11 43 20 98 20 124 l0 46 70 30 c175 73 316 237
364 421 21 81 21 243 0 314 -32 108 -93 193 -165 230 -70 35 -169 20 -169 -26
0 -19 32 -35 67 -35 108 0 174 -158 128 -305 -56 -177 -298 -272 -439 -172
-55 39 -68 91 -70 276 -3 228 -41 370 -139 524 -20 31 -37 61 -37 66 0 5 21
14 46 20 25 7 78 28 118 48 267 135 408 383 393 696 -5 125 -30 207 -86 296
-98 152 -266 223 -403 171 -89 -33 -145 -115 -103 -150 12 -10 19 -9 37 4 90
66 91 66 145 66 184 0 307 -214 217 -379 -33 -63 -70 -95 -144 -130 -50 -24
-65 -26 -175 -25 -90 1 -137 7 -190 23 -75 22 -495 222 -489 232 2 4 27 10 56
13 110 15 242 102 306 203 56 88 75 164 75 293 0 96 -5 130 -27 205 -77 253
-265 475 -425 501 -50 8 -87 -1 -95 -23 -9 -22 4 -33 64 -54 106 -37 170 -116
190 -232 24 -135 -42 -279 -147 -323 -71 -30 -89 -18 -219 151 -194 253 -363
374 -596 427 l-97 22 -22 50 c-57 136 -199 297 -333 381 -145 90 -333 145
-571 166 -231 21 -445 -12 -620 -95 -89 -42 -187 -109 -234 -160 -24 -25 -29
-26 -135 -26 -264 0 -480 -67 -620 -192 l-56 -50 -25 55 c-70 151 -71 326 -3
465 56 117 200 221 339 244 85 14 141 5 205 -32 127 -72 125 -250 -2 -267 -50
-6 -101 17 -114 53 -21 53 -70 37 -70 -24 0 -73 101 -129 218 -120 119 8 258
111 318 233 26 54 29 70 29 155 -1 76 -6 107 -24 155 -43 107 -153 195 -288
230 -62 16 -210 18 -282 4z m141 -270 c58 -19 132 -58 125 -66 -3 -2 -32 5
-66 17 -112 37 -265 21 -385 -43 -34 -17 -93 -63 -132 -102 -111 -110 -159
-232 -157 -400 2 -193 81 -369 308 -679 98 -134 104 -146 80 -146 -47 0 -238
133 -348 244 -214 213 -302 511 -223 752 33 102 84 181 172 265 101 97 223
160 342 179 79 12 216 2 284 -21z m1595 -537 c117 -41 187 -86 283 -182 60
-60 97 -106 123 -156 20 -40 37 -75 37 -78 0 -3 -16 -6 -36 -6 -32 0 -45 9
-129 98 -103 108 -138 133 -158 113 -9 -10 -1 -22 40 -61 29 -27 71 -70 94
-96 36 -41 39 -48 24 -57 -19 -10 -22 -8 -171 143 -145 148 -236 198 -402 221
-60 9 -95 8 -159 -3 -46 -8 -83 -10 -83 -6 0 15 143 78 211 93 96 22 225 13
326 -23z m-720 -173 c102 -14 266 -69 373 -125 138 -73 253 -167 460 -375 107
-108 254 -243 325 -301 274 -223 379 -365 498 -673 102 -263 231 -433 396
-519 36 -19 113 -48 171 -66 58 -17 137 -43 175 -57 183 -66 322 -188 408
-360 31 -60 63 -170 54 -180 -4 -3 -40 25 -80 63 -135 131 -259 195 -527 274
-322 95 -491 197 -633 385 -68 90 -114 184 -177 360 -50 140 -76 195 -137 288
-89 134 -276 300 -473 419 -98 59 -140 80 -407 204 -124 57 -269 131 -324 165
-190 117 -321 155 -492 144 -110 -7 -124 6 -29 26 78 16 266 6 367 -20 87 -23
265 -106 314 -147 33 -28 64 -29 69 -2 7 35 -189 154 -341 206 -94 33 -114 36
-245 40 -169 5 -239 -6 -337 -54 -177 -86 -296 -242 -346 -450 -15 -65 -20
-110 -17 -167 3 -53 1 -76 -6 -74 -18 6 -28 104 -23 217 25 518 448 852 984
779z m-967 -187 c0 -4 -21 -18 -46 -31 -53 -29 -116 -97 -141 -152 -18 -41
-33 -51 -33 -21 0 30 58 118 99 151 53 42 121 72 121 53z m860 -383 c147 -18
410 -120 750 -291 200 -100 324 -185 457 -312 138 -131 204 -239 283 -461 76
-213 141 -320 272 -453 158 -159 274 -219 663 -342 178 -55 277 -112 385 -220
137 -136 175 -225 209 -488 23 -172 51 -252 107 -301 54 -48 134 -65 218 -48
29 6 37 5 34 -5 -7 -19 -74 -36 -144 -37 -103 -2 -200 63 -254 169 -11 23 -32
91 -46 153 -13 62 -32 135 -41 162 -58 179 -194 326 -377 410 -203 93 -403
110 -721 64 -98 -14 -215 -6 -315 20 -278 74 -529 294 -637 557 -48 119 -71
216 -87 382 -16 157 -28 204 -77 288 -39 69 -96 118 -189 163 -73 35 -78 36
-190 36 -94 -1 -125 -5 -170 -23 -57 -22 -120 -61 -177 -107 -21 -18 -33 -23
-38 -15 -11 17 122 143 181 173 225 114 506 63 700 -128 121 -119 171 -249
194 -505 13 -157 25 -218 57 -300 76 -193 225 -338 413 -403 70 -25 106 -31
205 -35 101 -4 123 -2 133 11 11 13 4 21 -56 56 -148 86 -250 194 -329 346
-50 98 -65 143 -103 312 -35 156 -77 252 -155 351 -98 125 -279 266 -454 353
-155 76 -506 214 -621 243 -274 70 -509 30 -645 -109 -147 -150 -174 -348 -75
-546 17 -33 29 -63 27 -65 -8 -9 -69 69 -87 110 -62 146 -51 356 29 514 87
173 235 279 440 316 96 18 127 18 231 5z m1738 -53 c83 -23 192 -79 245 -126
27 -24 83 -86 126 -139 134 -164 205 -218 307 -228 44 -5 62 -1 108 21 31 15
65 39 76 53 11 14 22 24 24 22 11 -11 -38 -130 -71 -173 -51 -67 -109 -96
-187 -96 -100 1 -131 21 -316 209 -138 141 -176 174 -230 200 -90 43 -157 60
-275 67 -65 5 -112 13 -135 25 -39 19 -150 116 -150 130 0 11 86 36 165 49 78
12 246 4 313 -14z m-3583 -4 c-6 -5 -30 -14 -55 -21 -58 -17 -169 -73 -245
-123 -81 -54 -167 -138 -226 -222 -45 -64 -48 -71 -34 -85 15 -15 18 -14 36 9
90 112 131 157 174 190 51 39 144 90 164 90 22 0 11 -18 -17 -28 -31 -11 -172
-121 -199 -156 -60 -77 -317 -377 -350 -407 -44 -42 -135 -111 -139 -106 -10
10 88 271 143 381 123 246 338 408 628 475 51 12 132 14 120 3z m420 -227
c102 -26 238 -99 310 -167 36 -33 65 -64 65 -69 0 -5 -36 9 -80 31 -138 69
-234 93 -385 93 -277 1 -417 -74 -685 -368 -73 -81 -162 -171 -196 -199 -74
-61 -187 -120 -269 -141 -87 -22 -295 -19 -295 5 0 4 26 13 58 19 177 40 336
161 535 408 131 164 236 256 362 321 54 27 197 70 270 82 79 12 235 5 310 -15z
m3975 -57 c-19 -35 -92 -108 -110 -108 -10 1 -6 7 12 21 15 11 43 42 64 70 37
51 56 60 34 17z m-2270 -56 c0 -4 -32 -16 -71 -26 -117 -30 -204 -80 -295
-170 -114 -113 -173 -241 -174 -375 0 -55 -14 -44 -28 22 -44 213 106 464 322
539 53 18 246 26 246 10z m1548 -164 c67 -25 188 -118 153 -118 -6 0 -32 15
-58 34 -27 19 -81 49 -120 66 -40 18 -73 37 -73 42 0 10 16 6 98 -24z m-3365
-14 c26 -4 45 -10 42 -14 -2 -4 -38 -10 -79 -14 -98 -9 -206 -40 -287 -82 -95
-50 -191 -143 -344 -334 -74 -92 -161 -192 -193 -222 -130 -120 -249 -176
-392 -185 -294 -18 -535 171 -589 465 -5 23 -5 42 -1 42 3 0 21 -23 39 -50 33
-51 97 -105 182 -154 163 -94 409 -111 581 -42 120 49 169 87 373 291 178 179
208 205 275 238 110 53 268 78 393 61z m518 -153 c30 -12 64 -28 75 -37 21
-17 19 -17 -107 5 -35 6 -83 6 -127 1 -172 -22 -380 -126 -307 -154 8 -3 45
10 82 28 70 35 138 54 208 58 53 3 61 -15 10 -23 -105 -18 -259 -117 -337
-216 -60 -78 -87 -126 -149 -268 -81 -188 -152 -288 -258 -365 -35 -26 -61
-52 -61 -62 0 -33 21 -25 123 51 58 43 157 163 194 235 20 37 28 46 31 32 7
-32 -64 -159 -129 -230 -82 -90 -154 -138 -344 -234 -195 -98 -261 -141 -348
-221 -79 -74 -114 -126 -212 -311 -95 -178 -149 -261 -230 -348 -111 -120
-212 -163 -378 -163 -60 1 -121 7 -149 15 -174 54 -294 173 -366 364 -22 59
-26 83 -26 197 -1 151 18 228 81 332 117 193 303 319 498 338 l60 6 -53 -20
c-143 -54 -293 -173 -362 -287 -83 -137 -91 -344 -20 -484 30 -59 122 -152
182 -185 74 -40 196 -47 281 -15 130 49 208 145 311 381 109 253 189 347 444
520 278 190 369 295 498 581 79 175 116 233 209 324 75 72 164 127 263 159
114 37 311 35 413 -4z m3128 -167 c47 -14 191 -76 321 -139 286 -138 367 -165
510 -172 159 -8 256 25 362 125 27 25 48 42 48 40 0 -20 -63 -111 -113 -164
-107 -115 -245 -158 -428 -135 -172 22 -304 83 -499 231 -73 56 -283 191 -347
224 -18 9 -33 19 -33 22 0 10 88 -6 179 -32z m-3008 -104 c52 -9 183 -59 176
-66 -2 -2 -28 0 -59 5 -33 6 -85 6 -129 0 -188 -23 -309 -146 -369 -373 -62
-235 -145 -367 -315 -503 -31 -24 -37 -34 -29 -43 17 -17 41 -6 114 53 79 64
156 164 207 268 59 120 72 99 27 -43 -39 -124 -79 -195 -148 -263 -112 -111
-248 -165 -483 -190 -265 -29 -347 -59 -454 -165 -69 -69 -113 -146 -125 -219
-11 -70 -24 -56 -24 27 0 132 45 246 134 340 63 68 132 114 305 209 164 90
248 151 334 242 81 86 134 175 187 313 23 60 59 135 81 168 124 186 350 281
570 240z m1398 -35 c69 -38 148 -125 113 -125 -5 0 -17 10 -28 21 -62 69 -187
117 -273 104 -25 -3 -70 -17 -100 -31 -60 -27 -61 -27 -61 -15 0 12 66 51 115
67 65 22 172 13 234 -21z m-2543 -32 c-3 -10 -14 -56 -25 -103 -68 -292 -156
-415 -428 -601 -186 -127 -298 -251 -373 -414 -111 -240 -139 -291 -189 -342
-55 -55 -117 -90 -178 -100 l-38 -6 57 52 c70 64 110 141 138 266 12 50 27
118 35 153 21 91 72 187 139 259 58 63 96 80 96 45 0 -39 37 -54 65 -26 17 18
13 48 -12 75 -13 15 -11 20 19 42 18 14 94 55 168 92 157 79 227 125 292 192
72 75 122 163 174 303 26 72 51 130 56 130 5 0 7 -8 4 -17z m3273 -125 c35
-171 113 -347 203 -458 48 -60 51 -86 5 -50 -44 34 -118 141 -159 227 -60 127
-107 343 -76 343 9 0 19 -22 27 -62z m-1141 -45 c-14 -16 -40 -50 -57 -77 -58
-93 -31 -117 43 -38 43 46 113 91 164 107 30 9 28 -9 -2 -23 -24 -11 -86 -91
-86 -111 0 -21 32 -10 73 24 22 19 48 35 56 35 9 1 41 9 71 20 30 11 75 19
100 19 l45 -1 -48 -13 c-54 -15 -77 -31 -77 -52 0 -12 7 -13 28 -8 87 22 202
22 209 -2 2 -6 -10 -14 -27 -18 -34 -7 -36 -28 -3 -33 18 -3 21 -12 26 -100 9
-158 55 -278 151 -393 147 -178 351 -239 803 -239 l187 0 64 -65 c215 -220
216 -557 6 -1375 -203 -791 -298 -1020 -535 -1296 -218 -254 -637 -597 -875
-717 -164 -82 -316 -112 -536 -104 -187 6 -270 26 -423 101 -252 124 -696 490
-898 741 -225 279 -308 475 -490 1150 -113 419 -163 659 -187 901 -26 251 23
414 141 475 22 10 98 35 170 54 294 79 440 173 552 357 44 73 76 168 107 323
15 71 30 118 43 132 24 27 97 53 149 53 28 0 38 4 38 16 0 14 -10 16 -67 12
-38 -3 -77 -8 -88 -12 -20 -8 -20 -8 0 8 36 30 95 39 213 32 73 -4 112 -3 112
4 0 18 -63 50 -112 56 -56 8 -64 24 -12 24 44 0 186 -48 197 -66 5 -9 17 -12
31 -8 13 3 40 -2 61 -10 21 -9 40 -15 42 -13 13 13 -18 41 -75 69 -94 45 -51
50 71 8 107 -37 141 -54 180 -86 33 -28 57 -31 57 -8 0 25 -37 70 -77 95 -20
13 -31 25 -25 27 22 7 130 -50 168 -89 42 -43 64 -50 64 -18 0 26 -16 57 -47
91 -14 14 -23 32 -20 40 6 18 98 -77 121 -127 26 -57 33 -63 61 -57 17 3 27
13 32 31 10 43 52 107 94 145 46 42 74 48 37 9z m3139 -179 c-64 -59 -135
-100 -212 -120 -59 -16 -191 -18 -200 -4 -4 6 14 10 47 10 127 1 247 46 358
134 30 24 57 42 60 39 3 -3 -21 -29 -53 -59z m-6122 -170 c-14 -20 -25 -41
-25 -45 0 -5 -7 -9 -15 -9 -8 0 -15 3 -15 8 0 11 30 55 48 70 29 23 32 12 7
-24z m3676 -71 c39 -105 90 -174 181 -245 73 -57 69 -77 -5 -33 -91 53 -185
178 -202 268 -9 45 10 51 26 10z m-3935 -173 c-114 -124 -172 -236 -217 -421
-16 -68 -35 -146 -42 -174 -15 -60 -37 -69 -77 -30 -50 48 -75 119 -75 215 0
119 36 194 143 299 101 100 164 134 321 170 2 1 -22 -26 -53 -59z m5755 -390
c102 -66 187 -184 223 -311 8 -29 24 -110 36 -179 11 -69 23 -137 26 -152 17
-75 -58 17 -96 119 -11 30 -29 95 -40 145 -34 154 -118 299 -214 368 -25 19
-46 38 -46 43 0 17 62 -2 111 -33z m-261 -82 c-1 -153 -84 -314 -192 -369 -21
-11 -38 -17 -38 -15 0 2 28 33 63 68 35 34 74 85 87 112 27 56 49 152 50 214
0 30 4 42 15 42 11 0 15 -12 15 -52z m-4952 -481 c75 -45 260 -198 362 -298
85 -84 86 -85 98 -154 7 -39 24 -108 37 -155 13 -46 21 -87 18 -90 -10 -10
-97 97 -191 238 -105 159 -197 260 -293 322 -107 69 -134 54 -127 -73 5 -82
28 -163 92 -312 14 -34 36 -118 50 -188 14 -70 34 -144 45 -165 39 -75 312
-402 336 -402 34 0 23 27 -37 89 -62 63 -242 292 -266 338 -7 12 -23 79 -36
150 -13 70 -36 160 -51 198 -58 151 -66 177 -60 206 16 71 76 58 160 -33 90
-97 118 -167 90 -230 -5 -13 -2 -20 11 -25 10 -4 19 -2 21 4 2 5 10 18 17 28
13 18 14 17 26 -4 11 -21 6 -32 -44 -106 -31 -45 -56 -89 -56 -98 0 -25 22
-32 36 -11 33 46 107 134 113 134 3 0 12 -9 19 -20 10 -17 8 -26 -14 -62 -45
-71 -74 -141 -74 -181 0 -87 59 -167 174 -237 190 -117 223 -154 276 -315 47
-138 50 -178 18 -199 -36 -23 -76 -30 -93 -16 -13 11 -12 15 5 37 74 94 -62
218 -167 153 -40 -24 -40 -23 -107 95 -28 47 -108 159 -179 248 -193 242 -241
320 -295 487 -90 273 -126 532 -88 624 31 74 80 80 174 23z m5204 32 c52 -28
60 -132 27 -330 -38 -231 -105 -449 -173 -562 -18 -30 -78 -111 -133 -178
-171 -212 -221 -281 -268 -371 -25 -49 -47 -88 -50 -88 -2 0 -24 10 -48 21
-56 27 -104 20 -145 -21 -40 -39 -48 -86 -22 -122 11 -15 20 -31 20 -37 0 -11
-24 -21 -50 -21 -23 0 -80 47 -80 66 0 31 83 271 106 306 26 40 99 98 196 155
202 118 236 233 124 418 -36 59 -36 60 -16 79 20 20 20 20 59 -18 21 -21 47
-53 57 -72 20 -37 54 -46 54 -16 0 16 -43 88 -95 158 -11 15 -13 28 -7 44 9
23 9 23 28 -8 10 -18 22 -32 26 -32 16 0 20 29 8 64 -10 31 -8 41 16 88 39 79
94 147 140 174 47 28 76 30 95 8 22 -26 13 -77 -31 -180 -41 -96 -73 -221 -85
-336 -4 -38 -15 -70 -33 -97 -44 -65 -172 -220 -244 -296 -38 -40 -68 -79 -68
-88 0 -34 36 -16 91 46 89 101 255 310 272 342 8 17 24 82 36 145 23 131 35
171 85 290 42 102 66 190 69 258 4 91 -44 107 -137 44 -103 -69 -183 -159
-301 -337 -104 -158 -167 -236 -180 -223 -3 2 11 67 30 144 19 76 35 146 35
155 0 27 260 265 397 363 99 71 151 88 195 65z m-5952 -351 c1 -121 91 -331
126 -295 4 3 -5 30 -19 59 -52 109 -73 268 -36 268 5 0 9 -13 9 -28 0 -100 88
-303 183 -425 16 -21 27 -40 24 -44 -10 -9 -94 24 -142 57 -97 67 -172 209
-182 347 -6 79 -1 103 22 103 11 0 15 -11 15 -42z m6340 -31 c0 -138 -58 -277
-159 -378 -54 -54 -150 -119 -176 -119 -18 0 2 22 45 50 137 88 236 261 256
448 4 43 11 62 20 62 10 0 14 -16 14 -63z m230 -73 c-19 -91 -73 -185 -144
-252 -57 -53 -182 -129 -194 -118 -2 3 19 29 48 58 28 29 66 77 84 108 56 96
73 146 102 298 2 12 9 22 16 22 22 0 1 -137 -32 -208 -22 -47 -28 -68 -20 -76
8 -8 16 -5 27 9 38 49 83 180 83 242 0 20 7 36 18 42 15 8 17 5 20 -30 2 -22
-2 -65 -8 -95z m-6267 -41 c16 -132 134 -297 327 -456 84 -69 -13 -32 -127 49
-73 52 -120 105 -161 182 -49 92 -87 253 -66 275 13 13 21 -3 27 -50z m1029
-485 c20 -73 39 -141 43 -150 11 -27 -23 -23 -67 7 -40 27 -78 96 -78 141 0
32 44 134 58 134 4 0 24 -60 44 -132z m3961 83 c53 -97 24 -191 -75 -242 -44
-23 -45 -20 -19 70 11 36 27 101 36 144 9 42 20 77 24 77 4 0 20 -22 34 -49z
m-3942 -681 c27 -15 24 -27 -15 -63 -122 -116 -7 -357 133 -279 41 22 71 73
71 120 0 43 19 38 43 -11 24 -48 11 -92 -43 -141 -47 -42 -73 -50 -143 -44
-113 9 -187 100 -187 230 0 95 32 167 85 189 27 11 33 11 56 -1z m3935 -16
c28 -17 62 -88 70 -145 8 -61 -18 -149 -57 -193 -41 -47 -103 -70 -178 -64
-67 5 -120 37 -147 89 -19 38 -11 100 17 124 21 20 23 17 33 -46 12 -71 79
-119 145 -104 33 7 75 48 90 88 29 76 4 189 -48 217 -26 13 -27 36 -3 49 19
11 45 6 78 -15z m-4305 -142 c-23 -43 -145 -116 -183 -110 -22 4 -22 5 -3 12
56 22 85 38 134 75 62 47 65 48 52 23z m4650 -28 c17 -21 103 -64 128 -64 11
0 23 -4 26 -10 11 -17 -57 -11 -100 9 -36 17 -95 64 -95 76 0 11 29 4 41 -11z
m-4501 -98 c0 -36 -43 -81 -108 -113 -50 -25 -68 -28 -152 -28 -84 0 -101 3
-145 27 -54 28 -135 94 -135 109 0 5 22 9 50 9 39 0 54 -5 73 -24 65 -65 256
-55 364 18 47 32 53 32 53 2z m4355 -2 c19 -14 57 -34 85 -45 90 -34 241 -19
294 29 20 19 116 36 116 20 0 -13 -115 -101 -160 -122 -34 -15 -65 -20 -126
-20 -72 0 -90 4 -147 32 -69 34 -117 80 -117 113 0 26 15 24 55 -7z m-531
-222 c22 -14 33 -32 46 -77 48 -173 172 -313 336 -380 55 -22 57 -24 30 -31
-128 -32 -337 97 -414 256 -37 77 -62 167 -62 227 0 39 2 43 18 33 9 -6 30
-19 46 -28z m-3277 -72 c-12 -159 -60 -265 -168 -364 -77 -72 -144 -98 -269
-104 -80 -3 -104 0 -152 17 -52 20 -170 111 -123 96 72 -24 128 -29 197 -17
110 19 170 53 272 154 49 48 90 87 92 85 10 -10 -45 -97 -93 -148 -53 -56 -56
-61 -40 -76 16 -16 22 -13 91 58 41 41 85 98 100 126 28 57 66 184 66 224 0
27 7 39 23 39 6 0 8 -33 4 -90z m2977 -200 c37 -56 125 -142 193 -188 136 -92
218 -116 388 -115 93 0 135 5 185 21 120 39 86 1 -44 -49 -153 -59 -341 -50
-480 24 -108 57 -286 262 -286 329 0 29 15 21 44 -22z m-1946 -556 c37 -10 25
-24 -20 -24 -162 0 -626 -79 -784 -133 -174 -60 -219 -109 -156 -172 27 -28
27 -28 2 -15 -45 23 -70 52 -70 82 0 99 250 184 730 248 140 19 258 24 298 14z
m1433 -14 c309 -33 496 -74 627 -138 73 -36 122 -79 122 -109 0 -23 -35 -66
-72 -87 l-33 -20 28 33 c52 62 31 98 -93 154 -155 71 -427 122 -807 153 -79 6
-104 17 -65 27 36 10 107 6 293 -13z m-431 -150 c235 -14 629 -65 649 -85 16
-16 -26 -15 -161 4 -305 43 -456 53 -833 58 -416 5 -645 -7 -967 -53 -172 -25
-214 -26 -195 -7 8 8 249 47 389 64 223 26 820 36 1118 19z m205 -84 c300 -31
599 -88 720 -136 l30 -12 -30 -14 c-40 -18 -46 -17 -101 7 -111 47 -363 97
-607 120 -70 7 -130 10 -133 6 -4 -3 -4 -12 -1 -20 4 -10 31 -16 89 -21 237
-19 488 -66 594 -111 54 -23 37 -30 -143 -59 -628 -104 -1406 -114 -1938 -26
-182 31 -325 62 -325 71 0 11 77 33 245 68 167 35 323 55 585 76 107 9 196 18
199 21 3 2 0 9 -7 16 -18 18 -426 -12 -652 -48 -144 -23 -321 -62 -385 -84
-64 -22 -110 -26 -120 -10 -23 37 448 135 791 165 224 19 968 14 1189 -9z
m-2049 -222 c161 -58 266 -82 509 -118 362 -54 452 -60 885 -60 413 0 601 11
900 54 276 41 431 78 612 150 55 22 103 38 106 36 12 -13 -36 -156 -88 -264
-138 -286 -319 -481 -561 -607 -113 -58 -162 -71 -66 -17 247 140 499 440 564
672 14 52 15 63 3 70 -21 13 -27 5 -45 -57 -74 -253 -324 -532 -636 -711 -93
-53 -188 -96 -196 -88 -3 2 26 21 65 40 145 73 404 286 501 411 57 74 151 259
151 297 0 52 -29 27 -65 -56 -45 -105 -86 -170 -159 -255 -156 -183 -421 -372
-624 -445 -110 -39 -108 -32 8 30 58 31 121 67 140 82 71 52 160 134 160 147
0 31 -24 23 -78 -26 -106 -98 -292 -204 -452 -260 -55 -19 -86 -22 -210 -23
-134 -1 -151 2 -225 27 -188 66 -366 176 -475 295 -65 71 -90 82 -90 43 0 -25
153 -170 235 -223 39 -25 99 -60 135 -78 82 -42 62 -51 -28 -14 -185 77 -376
209 -543 374 -114 113 -167 186 -232 322 -29 60 -48 87 -59 88 -12 0 -18 -8
-18 -21 0 -28 68 -163 125 -249 103 -156 380 -390 568 -481 50 -24 65 -46 21
-29 -15 6 -66 30 -115 54 -290 145 -553 415 -689 711 -18 39 -36 76 -40 84 -9
21 -29 25 -36 8 -10 -28 58 -167 148 -304 104 -156 233 -294 368 -391 127 -92
130 -95 64 -63 -170 83 -396 275 -506 431 -92 131 -218 405 -218 474 l0 25 44
-25 c24 -14 88 -41 142 -60z"/>
<path d="M5470 6575 c-10 -12 -9 -16 3 -21 20 -7 37 3 37 22 0 18 -24 18 -40
-1z"/>
<path d="M4702 6568 c5 -15 28 -23 28 -10 0 5 -7 13 -16 16 -10 4 -14 1 -12
-6z"/>
<path d="M5102 6083 c-5 -10 -12 -31 -16 -48 -4 -16 -33 -84 -64 -150 -68
-146 -78 -214 -40 -280 42 -72 140 -105 207 -70 41 21 79 69 92 117 14 54 1
104 -55 216 -44 88 -70 154 -80 205 -7 31 -31 36 -44 10z"/>
<path d="M3573 5480 c-242 -15 -282 -23 -269 -55 5 -15 15 -16 59 -11 85 11
365 8 462 -4 365 -45 649 -165 807 -340 35 -39 68 -70 75 -70 19 0 27 22 12
34 -16 12 -49 61 -49 72 0 4 11 -3 25 -16 19 -18 28 -21 36 -13 25 25 -118
167 -240 239 -150 87 -345 145 -561 164 -125 11 -172 11 -357 0z"/>
<path d="M6295 5479 c-215 -21 -460 -100 -592 -190 -108 -74 -217 -199 -194
-222 8 -8 19 -3 42 19 l32 29 -18 -30 c-11 -16 -25 -38 -33 -47 -16 -19 -8
-40 13 -32 8 3 24 21 36 40 12 19 53 62 93 95 219 186 717 311 1111 279 91 -7
132 -7 139 1 17 16 -18 36 -77 43 -69 8 -381 26 -432 24 -22 0 -76 -4 -120 -9z"/>
<path d="M3225 5440 c-9 -15 3 -30 24 -30 23 0 31 9 24 26 -6 16 -39 19 -48 4z"/>
<path d="M6960 5431 c0 -16 6 -21 26 -21 33 0 30 33 -4 38 -17 3 -22 -2 -22
-17z"/>
<path d="M3244 5166 c-8 -21 8 -40 73 -83 30 -20 87 -72 126 -117 144 -162
270 -280 334 -314 128 -67 314 -81 499 -37 113 27 202 32 237 14 12 -6 41 -30
64 -52 36 -34 44 -38 58 -27 21 18 19 26 -17 72 -78 96 -160 114 -329 72 -214
-53 -389 -33 -525 61 -64 45 -274 258 -274 279 0 12 11 16 44 16 24 0 97 9
161 20 195 33 343 23 501 -34 124 -45 209 -113 373 -296 38 -43 41 -44 57 -28
17 17 15 21 -30 88 -108 158 -232 263 -372 316 -141 53 -351 68 -549 39 -173
-25 -276 -19 -407 22 -11 3 -20 -1 -24 -11z"/>
<path d="M6900 5159 c-81 -22 -229 -24 -365 -4 -55 8 -145 14 -200 15 -309 0
-513 -105 -680 -353 -55 -82 -58 -88 -42 -104 16 -16 20 -14 74 47 140 158
225 225 353 277 141 56 289 67 481 33 63 -11 140 -20 172 -20 40 0 57 -4 57
-13 0 -17 -144 -182 -206 -235 -66 -57 -168 -107 -261 -128 -95 -21 -196 -15
-343 22 -152 38 -229 24 -305 -54 -41 -43 -51 -68 -35 -87 19 -23 32 -18 64
21 54 67 129 80 271 43 46 -11 131 -22 201 -26 258 -12 399 57 590 290 100
122 142 164 211 208 60 39 79 62 67 80 -7 12 -26 10 -104 -12z"/>
<path d="M4874 4786 c-3 -7 6 -30 20 -50 17 -25 27 -57 32 -104 10 -96 -3
-496 -19 -562 -14 -59 -8 -117 15 -131 16 -11 28 -11 29 -1 0 4 1 32 3 62 1
30 8 82 14 115 15 77 16 506 1 575 -16 76 -78 139 -95 96z"/>
<path d="M4950 3825 c0 -18 60 -57 114 -75 23 -7 57 -10 83 -6 50 7 139 51
147 73 10 25 -20 25 -69 -1 -65 -35 -143 -35 -204 -1 -49 29 -71 32 -71 10z"/>
<path d="M4832 3754 c-48 -34 -17 -74 58 -74 22 0 57 -7 77 -15 44 -18 53 -19
53 -2 0 15 -65 80 -97 96 -30 15 -65 14 -91 -5z"/>
<path d="M5315 3755 c-16 -8 -37 -20 -46 -27 -23 -19 -53 -68 -45 -75 3 -3 29
1 57 10 28 10 66 17 84 17 31 0 65 25 65 48 0 16 -41 42 -65 42 -11 -1 -33 -7
-50 -15z"/>
<path d="M4755 3254 c-108 -37 -191 -44 -235 -19 -33 19 -74 19 -90 0 -37 -45
48 -90 170 -90 53 0 103 9 168 29 114 34 141 35 229 5 93 -32 167 -30 269 5
l81 28 109 -31 c146 -40 183 -45 251 -31 82 17 113 35 113 65 0 41 -38 52 -88
26 -60 -31 -124 -27 -244 14 -57 19 -119 35 -138 35 -20 0 -76 -14 -124 -31
-99 -34 -114 -34 -233 7 -92 31 -117 30 -238 -12z"/>
<path d="M4918 2983 c-14 -18 -3 -42 24 -52 40 -15 210 -22 287 -12 79 10 118
34 102 60 -12 19 -397 23 -413 4z"/>
<path d="M4790 1899 c-139 -13 -218 -29 -224 -45 -9 -23 18 -27 87 -15 171 31
560 41 763 19 144 -15 206 -16 211 -2 6 17 -18 23 -156 39 -136 16 -532 18
-681 4z"/>
<path d="M4188 1855 c-131 -29 -148 -34 -148 -46 0 -12 36 -11 81 1 19 5 84
18 144 28 60 10 111 24 113 30 6 19 -69 13 -190 -13z"/>
<path d="M4275 1810 c-8 -12 20 -24 35 -15 6 3 8 11 5 16 -8 12 -32 12 -40 -1z"/>
<path d="M4533 1809 c-23 -8 -30 -24 -15 -33 14 -9 52 6 52 20 0 19 -12 23
-37 13z"/>
<path d="M5675 1563 c-113 -19 -782 -29 -940 -14 -238 23 -262 24 -269 12 -18
-29 16 -39 177 -52 211 -18 785 -18 972 -1 162 16 175 18 175 37 0 26 -34 31
-115 18z"/>
<path d="M5375 940 c-99 -47 -334 -52 -449 -11 -70 25 -96 27 -96 6 0 -40 148
-78 300 -78 155 0 315 42 315 83 0 21 -24 21 -70 0z"/>
</g>
</svg>
